#!OML:ASF F:\VICON\USERDATA\INSTALL\rory3\rory3.ASF
:FULLY-SPECIFIED
:DEGREES
105
root 0.587610326132064 17.88250441374051 47.00819282425213 -4.06638634120336 -0.14188304600785104 -1.0225212899839458
lfemur -3.6398018312587226 -3.2301505846950174 -23.790650810287488
ltibia 25.34241449478748
lfoot -9.937275596837392 -0.931169891350768
ltoes -13.974042045366595
rfemur -24.73114977530049 -4.432517531129237 23.283599909552745
rtibia 67.21670906954132
rfoot -5.18429653142663 -8.552936355036259
rtoes 7.663872738485211
lowerback -1.0 0.21255208797231703 -1.299340503335171
upperback 0.49535097289004576 0.23240011906383334 1.2202007956255343
thorax -6.086425681648983 0.17820100314657178 2.2275603968461124
lowerneck -16.705602892672747 -3.4635081231231855 -3.161767547685998
upperneck 19.816628205829026 -4.757034614021574 3.5994048523289206
head 9.011833997277265 -2.052449931970568 0.9997240531722815
lclavicle 1.2900777583405767e-15 -2.057212897970347e-16
lhumerus -30.68124944577183 4.815806694313452 80.81750705621666
lradius 24.384512457907643
lwrist 7.353780329563954
lhand -29.31703026127831 18.21180921178891
lfingers nan
lthumb -2.6926108536897293 48.04317480940292
rclavicle 1.1070565777737193e-15 -2.587494076517513e-16
rhumerus -28.80063763399328 -18.603711024102147 -78.89295550871454
rradius 29.275080546092173
rwrist 0.34151568129587506
rhand -18.050303464237786 -1.0
rfingers nan
rthumb 8.070050880090816 -7.144526952572631
106
root 0.565191731837798 17.82162390856865 47.14717093950836 -3.7309328529907457 0.27979563787703554 -0.6121591278352154
lfemur -1.2836671320470527 -3.542698866905244 -24.409986806721374
ltibia 24.35581859906407
lfoot -9.724495382886703 -1.3201311119059098
ltoes -14.659225981009772
rfemur -26.569002710982073 -3.4788424830736524 22.669414006097195
rtibia 59.5943283292383
rfoot -6.515667309720864 -9.29691157421353
rtoes 4.5690590173851735
lowerback -1.0 0.0011443996325510575 -1.8637918361327495
upperback 0.5488480568096354 -0.1325252372857968 1.2587014494600086
thorax -5.996140953356214 0.007929357946004856 2.623410786869453
lowerneck -16.863276223254953 -3.431052500991412 -3.21975806553628
upperneck 19.740960112340094 -4.683376484633525 3.609489241775693
head 9.006209432013678 -2.0257996842410533 1.0163394431792396
lclavicle 1.2092442692132439e-15 -2.489328783801259e-16
lhumerus -29.65702519685814 3.642747309048908 81.07557134814809
lradius 25.489861594512384
lwrist 7.68889505020804
lhand -29.099731104837897 19.134173654334354
lfingers nan
lthumb -2.5320475024869578 48.80177177806932
rclavicle 9.855993237999603e-16 -3.245278678674607e-16
rhumerus -29.50562500930317 -18.99345628819157 -78.55235127110414
rradius 29.477076456850146
rwrist 0.013952279833189696
rhand -18.040843095946737 -1.0
rfingers nan
rthumb 8.102741572515582 -7.137865418387462
107
root 0.5350385701116298 17.76371333725956 48.17985745962761 -3.272836698832978 0.6764434045412465 -0.11464800530981112
lfemur 1.2744079894198892 -3.5986382199833455 -25.03481353135269
ltibia 22.41993842539944
lfoot -8.496204612888556 -2.192262802206118
ltoes -16.25901714799305
rfemur -27.509729176748863 -1.985732957605335 21.957868360825803
rtibia 49.30851528350715
rfoot -7.013743594051875 -10.656706920509677
rtoes 2.7482093426169576
lowerback -1.0 -0.20544098224705912 -2.484249326358497
upperback 0.572942065008242 -0.5119047520986488 1.2625009294902383
thorax -5.901231301779184 -0.1665660140309186 3.0299008214446634
lowerneck -16.97628420626778 -3.3831294191833488 -3.236084149499321
upperneck 19.681184585623917 -4.591493920912818 3.5770845909665083
head 9.000976852317264 -1.9942599916639199 1.019009970895074
lclavicle 1.1315547643056087e-15 -2.892722397873679e-16
lhumerus -28.69177732656993 2.498977522595205 81.27609247756104
lradius 26.615457749693505
lwrist 7.9877668307221095
lhand -28.860545619142865 20.139098936378815
lfingers nan
lthumb -2.3455671000356375 49.655738572798725
rclavicle 8.551169394019412e-16 -4.0022309343321566e-16
rhumerus -30.222130664100767 -19.332321207306837 -78.2107392776863
rradius 29.67913586417841
rwrist -0.235857067803948
rhand -18.054426029150314 -1.0
rfingers nan
rthumb 8.123576865682406 -7.048843940069604
108
root 0.5069980807628629 17.76588215145463 48.22552255583245 -2.753584308709034 1.2247304675717046 0.08533281532366255
lfemur 3.8729052976097664 -3.4273758262013008 -25.308540394004353
ltibia 20.11945088063313
lfoot -7.1143261816951355 -3.823957400216072
ltoes -18.892700401494817
rfemur -27.35632016879173 0.17406652225548647 21.112606144361198
rtibia 37.138124682210574
rfoot -7.186977479024266 -12.264809560887128
rtoes 1.9144408807993032
lowerback -1.0 -0.42905968337783085 -2.850261056475275
upperback 0.5741381561921475 -0.835017574110869 1.3237496404782072
thorax -5.800183873075871 -0.31580659670476985 3.380530535648604
lowerneck -17.07696063567505 -3.3264748666308996 -3.2276588487803446
upperneck 19.65872396153108 -4.484573784665815 3.504842659587575
head 9.006113693095976 -1.9589358694460015 1.0094159371059588
lclavicle 1.0241352520345405e-15 -3.5566187288505943e-16
lhumerus -27.81313025670305 1.4720524254615612 81.42292299394876
lradius 27.71388425926414
lwrist 8.306492169644605
lhand -28.656720397045778 21.131876735742907
lfingers nan
lthumb -2.193807187909326 50.50389538430292
rclavicle 7.39965894434661e-16 -4.696974094730991e-16
rhumerus -30.926001333953984 -19.676424215992927 -77.86781052597283
rradius 29.813460055917837
rwrist -0.3563702717999955
rhand -18.100408313700353 -1.0
rfingers nan
rthumb 8.12664852994706 -6.902666942372335
109
root 0.4782802243874272 17.744717859552047 48.93823421010018 -2.3270332082196434 1.5503643612430262 0.1952344511052
lfemur 6.683579380512264 -3.121580479779518 -25.359242791239062
ltibia 18.167986598984225
lfoot -4.789094425945525 -5.001173414689221
ltoes -22.002079183418996
rfemur -26.345332331603533 2.652663791558959 20.283733678199464
rtibia 25.20236307866653
rfoot -8.570134284383105 -14.056717046800632
rtoes 0.6971671429934034
lowerback -1.0 -0.6270990155588607 -3.0986701067688953
upperback 0.5571357957102503 -1.0995791595757904 1.397634860843261
thorax -5.703721216798805 -0.4419752234054999 3.6760121761739546
lowerneck -17.16446038068553 -3.254882395333281 -3.1845878950381854
upperneck 19.675464471549002 -4.3536265218042285 3.378132341234193
head 9.023506191326213 -1.9168540704178807 0.9832038591623833
lclavicle 9.3883314368507e-16 -4.111878209413667e-16
lhumerus -27.050473199156894 0.6165858852563426 81.5274597459678
lradius 28.72421469320265
lwrist 8.679504921022334
lhand -28.533935474661806 21.993502518322007
lfingers nan
lthumb -2.117720318236598 51.22767390127684
rclavicle 6.488522827949887e-16 -5.295298586801091e-16
rhumerus -31.61871706206261 -20.074234895743796 -77.50898900631061
rradius 29.840831192677722
rwrist -0.3330548751525346
rhand -18.173954568312833 -1.0
rfingers nan
rthumb 8.111274214132866 -6.747997487201285
